<?xml version="1.0" encoding="UTF-8" standalone="no"?>
<!-- Created with Inkscape (http://www.inkscape.org/) -->

<svg
   xmlns:dc="http://purl.org/dc/elements/1.1/"
   xmlns:cc="http://creativecommons.org/ns#"
   xmlns:rdf="http://www.w3.org/1999/02/22-rdf-syntax-ns#"
   xmlns:svg="http://www.w3.org/2000/svg"
   xmlns="http://www.w3.org/2000/svg"
   version="1.1"
   width="177"
   height="126.2375"
   id="svg3077"
   xml:space="preserve"><metadata
     id="metadata3083"><rdf:RDF><cc:Work
         rdf:about=""><dc:format>image/svg+xml</dc:format><dc:type
           rdf:resource="http://purl.org/dc/dcmitype/StillImage" /><dc:title></dc:title></cc:Work></rdf:RDF></metadata><defs
     id="defs3081"><clipPath
       id="clipPath3101"><path
         d="m 898,3 518,0 0,1007 -518,0 0,-1007 z"
         id="path3103" /></clipPath></defs><g
     transform="matrix(1.25,0,0,-1.25,0,126.2375)"
     id="g3085"><g
       transform="scale(0.1,0.1)"
       id="g3087"><path
         d="m 898.23,3.32813 517.801,0 0,1006.57997 -517.801,0 0,-1006.57997 z"
         id="path3089"
         style="fill:#e51b24;fill-opacity:1;fill-rule:nonzero;stroke:none" /><path
         d="m 1057.72,798.648 0,-55.925 -56.56,0 0,-24.856 138.77,0 0,24.856 -61.51,0 0,55.925 61.51,0 0,24.844 -138.77,0 0,-24.844 56.56,0"
         id="path3091"
         style="fill:#ffffff;fill-opacity:1;fill-rule:nonzero;stroke:none" /><path
         d="m 1174.11,843.18 20.7,0 0,55.508 117.88,0 0,24.855 -138.58,0 0,-80.363"
         id="path3093"
         style="fill:#ffffff;fill-opacity:1;fill-rule:nonzero;stroke:none" /><path
         d="m 1174.11,798.648 138.57,0 0,24.8555 -138.57,0 0,-24.8555 z"
         id="path3095"
         style="fill:#ffffff;fill-opacity:1;fill-rule:nonzero;stroke:none" /><g
         id="g3097"><g
           clip-path="url(#clipPath3101)"
           id="g3099"><path
             d="m 1121.31,633.98 c 0,-8.101 -2.57,-15.105 -5.16,-20.691 -2.68,-5.613 -5.56,-9.656 -6.67,-11.398 l 17.61,-11.395 c 1.85,1.57 15.54,18.484 15.54,44.52 0,29.836 -17.27,47.636 -42.44,47.636 -25.93,0 -34.24,-18.992 -43.09,-38.316 -6.66,-14.523 -10.88,-25.258 -21.76,-25.258 -9.87,0 -16.57,9.824 -16.57,22.774 0,8.964 3.83,17.992 8.9,25.277 1.01,1.426 1.53,2.422 2.09,3.101 l -16.59,11.411 c -1.17,-1.184 -15.111,-15.762 -15.111,-41.438 0,-26.719 16.381,-45.558 39.981,-45.558 17.74,0 28.3,11.027 35.62,25.468 3.29,6.477 6,13.047 8.89,19.668 3.67,8.36 8.3,17.617 19.08,17.617 11.79,0 19.68,-8.027 19.68,-23.418"
             id="path3105"
             style="fill:#ffffff;fill-opacity:1;fill-rule:nonzero;stroke:none" /><path
             d="m 1001.16,534.578 138.77,0 0,24.8516 -138.77,0 0,-24.8516 z"
             id="path3107"
             style="fill:#ffffff;fill-opacity:1;fill-rule:nonzero;stroke:none" /><path
             d="m 1234.8,741.695 0,-9.734 c 0,-6.145 0.34,-12.305 -0.42,-17.609 -0.8,-5.282 -2.32,-9.981 -5.79,-13.457 -4.01,-4.004 -9.07,-5.172 -13.66,-5.172 -4.59,0 -9.46,1.754 -12.88,5.172 -6.2,6.203 -7.86,13.183 -7.86,27.328 l 0,13.472 40.61,0 z m 58.81,0 0,-10.371 c 0,-8.621 0.27,-20.965 -6.84,-27.332 -3.16,-2.82 -6.57,-4.14 -11.81,-4.14 -5.82,0 -11.15,1.164 -14.25,4.57 -6.07,6.551 -6.68,18.066 -6.68,27.949 l 0,9.324 39.58,0 z m -106.03,-60.476 c 6.26,-6.281 16.11,-10.371 27.93,-10.371 19.71,0 27.73,13.73 30.28,23.816 2.1,-5.879 8.56,-19.258 29.17,-19.258 10.21,0 18.58,2.649 26.34,10.371 10,10.024 11.39,23.52 11.39,38.313 l 0,41.418 -138.58,0 0,-31.477 c 0,-21.941 0.14,-39.504 13.47,-52.812"
             id="path3109"
             style="fill:#ffffff;fill-opacity:1;fill-rule:nonzero;stroke:none" /><path
             d="m 1139.93,443.047 0,24.832 -118.47,0 0,38.73 -20.3,0 0,-102.531 20.3,0 0,38.969 118.47,0"
             id="path3111"
             style="fill:#ffffff;fill-opacity:1;fill-rule:nonzero;stroke:none" /><path
             d="m 1001.16,351.266 138.77,0 0,24.875 -138.77,0 0,-24.875 z"
             id="path3113"
             style="fill:#ffffff;fill-opacity:1;fill-rule:nonzero;stroke:none" /><path
             d="m 1284.71,458.563 -58.83,-19.465 0,38.324 58.83,-18.859 z m -78.51,25.285 0,-51.387 -11.79,-4.121 c -4.77,-1.684 -12.51,-3.574 -16.16,-7.246 -2.83,-2.883 -4.14,-6.828 -4.14,-15.141 l 0,-10.367 138.57,49.488 0,25.293 -138.57,49.504 0,-25.48 32.09,-10.543"
             id="path3115"
             style="fill:#ffffff;fill-opacity:1;fill-rule:nonzero;stroke:none" /><path
             d="m 1021.05,236.973 0,10.34 c 0,5.39 -0.22,10.324 0.42,14.5 0.61,4.121 2.09,7.699 5.17,10.761 2.56,2.539 8.45,5.18 14.69,5.18 5.65,0 11.34,-2.414 15.14,-6.215 6.21,-6.219 7.25,-14.781 7.25,-26.316 l 0,-8.25 -42.67,0 z m 62.54,0 0,4.129 c 0,5.722 0.14,15.671 5.61,21.121 7.27,7.25 41.2,20.91 46.17,25.879 3.65,3.632 4.55,7.793 4.55,17.589 l 0,14.114 c -9.7,-5.91 -53,-28.586 -58.4,-33.977 -3.99,-4.004 -5.16,-7.461 -5.78,-11.594 -1.57,7.856 -4.77,13.868 -9.94,19.043 -6.5,6.489 -15.11,9.336 -24.47,9.336 -11.84,0 -21.48,-4.746 -28.15,-11.394 -9.11,-9.09 -10.94,-19.961 -11.38,-32.11 -0.17,-4.179 -0.42,-8.879 -0.42,-13.468 l 0,-33.551 138.54,0 0,24.883 -56.33,0"
             id="path3117"
             style="fill:#ffffff;fill-opacity:1;fill-rule:nonzero;stroke:none" /><path
             d="m 1111.97,153.492 c 6.19,-6.199 7.89,-13.191 7.89,-27.344 l 0,-13.457 -40.59,0 0,9.739 c 0,6.113 -0.37,12.285 0.39,17.605 0.8,5.266 2.31,9.922 5.83,13.457 3.96,4.004 9.03,5.168 13.64,5.168 4.59,0 9.41,-1.789 12.84,-5.168 m -91.53,-40.801 0,10.344 c 0,8.645 -0.26,20.969 6.83,27.305 3.14,2.871 6.59,4.211 11.79,4.211 5.87,0 11.16,-1.184 14.31,-4.602 6.02,-6.543 6.61,-18.047 6.61,-27.969 l 0,-9.289 -39.54,0 z m 78.06,70.832 c -19.7,0 -27.72,-13.691 -30.21,-23.828 -2.12,5.907 -8.57,19.27 -29.23,19.27 -10.16,0 -18.56,-2.668 -26.29,-10.356 -10.04,-10.054 -11.39,-23.535 -11.39,-38.32 l 0,-41.4413 138.54,0 0,31.4923 c 0,21.933 -0.13,39.504 -13.45,52.832 -6.25,6.277 -16.13,10.351 -27.97,10.351"
             id="path3119"
             style="fill:#ffffff;fill-opacity:1;fill-rule:nonzero;stroke:none" /><path
             d="m 1174.11,236.336 0,-24.258 54.86,0 83.72,-43.039 0,15.539 c 0,9.309 -3.63,10.645 -12.43,15.078 l -47.87,24.246 60.3,30.657 0,25.254 -83.72,-43.477 -54.86,0"
             id="path3121"
             style="fill:#ffffff;fill-opacity:1;fill-rule:nonzero;stroke:none" /><path
             d="m 1293.01,351.91 0,-10.379 c 0,-5.41 0.17,-10.304 -0.4,-14.48 -0.68,-4.121 -2.12,-7.707 -5.24,-10.766 -2.54,-2.566 -8.41,-5.183 -14.67,-5.183 -5.65,0 -11.31,2.39 -15.14,6.23 -6.18,6.184 -7.26,14.785 -7.26,26.27 l 0,8.308 42.71,0 z m -62.59,0 0,-4.156 c 0,-5.695 -0.13,-15.664 -5.56,-21.137 -7.23,-7.254 -41.22,-20.894 -46.21,-25.879 -3.6,-3.621 -4.54,-7.742 -4.54,-17.605 l 0,-14.094 c 9.69,5.938 53.03,28.606 58.42,33.984 3.96,4.004 5.16,7.461 5.79,11.606 1.53,-7.856 4.75,-13.891 9.96,-19.055 6.47,-6.496 15.08,-9.328 24.42,-9.328 11.85,0 21.49,4.727 28.16,11.399 9.1,9.113 10.95,19.98 11.39,32.078 0.16,4.211 0.43,8.879 0.43,13.476 l 0,33.559 -138.57,0 0,-24.848 56.31,0"
             id="path3123"
             style="fill:#ffffff;fill-opacity:1;fill-rule:nonzero;stroke:none" /><path
             d="m 1293.01,615.973 0,-10.36 c 0,-5.41 0.17,-10.32 -0.4,-14.504 -0.68,-4.129 -2.12,-7.664 -5.24,-10.761 -2.54,-2.547 -8.41,-5.184 -14.67,-5.184 -5.65,0 -11.31,2.434 -15.14,6.223 -6.18,6.179 -7.26,14.785 -7.26,26.304 l 0,8.282 42.71,0 z m -62.59,0 0,-4.137 c 0,-5.734 -0.13,-15.688 -5.56,-21.137 -7.23,-7.234 -41.22,-20.894 -46.21,-25.879 -3.6,-3.621 -4.54,-7.754 -4.54,-17.617 l 0,-14.051 c 9.69,5.899 53.03,28.555 58.42,33.938 3.96,4.012 5.16,7.449 5.79,11.609 1.53,-7.851 4.75,-13.906 9.96,-19.07 6.47,-6.477 15.08,-9.301 24.42,-9.301 11.85,0 21.49,4.707 28.16,11.379 9.1,9.109 10.95,19.973 11.39,32.109 0.16,4.192 0.43,8.887 0.43,13.45 l 0,33.574 -138.57,0 0,-24.867 56.31,0"
             id="path3125"
             style="fill:#ffffff;fill-opacity:1;fill-rule:nonzero;stroke:none" /></g></g><path
         d="m 261.688,232.859 50.375,0 -0.129,-14.464 -33.411,0 -0.132,-23.418 33.152,0 -0.137,-14.461 -33.281,0 -0.129,-38.672 -17.226,0 0.918,91.015"
         id="path3127"
         style="fill:#ffffff;fill-opacity:1;fill-rule:nonzero;stroke:none" /><path
         d="m 325.859,208.133 16.043,0 0,-12.102 0.141,-0.261 c 3.152,7.625 7.234,13.945 15.391,14.207 1.57,0 3.152,-0.262 4.734,-0.664 l -2.637,-15.379 c -1.308,0.261 -2.629,0.515 -3.808,0.515 -6.18,0 -10.657,-4.597 -13.946,-11.57 l -0.39,-41.035 -16.184,0 0.656,66.289"
         id="path3129"
         style="fill:#ffffff;fill-opacity:1;fill-rule:nonzero;stroke:none" /><path
         d="m 396.875,152.891 c 11.582,0 15.652,12.363 15.652,21.57 0,13.809 -4.859,22.629 -15.652,22.629 -11.965,0 -15.645,-13.418 -15.645,-22.629 0,-8.02 3.68,-21.57 15.645,-21.57 z m 0,57.086 c 21.047,0 31.699,-15.387 31.699,-34.989 0,-18.808 -11.699,-34.992 -31.699,-34.992 -21.57,0 -31.699,16.184 -31.699,34.992 0,17.489 12.234,34.989 31.699,34.989"
         id="path3131"
         style="fill:#ffffff;fill-opacity:1;fill-rule:nonzero;stroke:none" /><path
         d="m 442.5,208.133 15.918,0 0,-8.809 0.266,-0.265 c 4.082,6.308 11.57,10.918 19.722,10.918 7.766,0 14.074,-3.551 16.184,-11.305 5,6.836 13.281,11.305 21.699,11.305 14.863,0 17.891,-10.653 17.891,-19.071 0,-16.308 -0.125,-32.754 -0.125,-49.062 l -16.059,0 0.141,26.047 c 0,6.832 0.125,15.914 0.125,19.461 0,5 -3.02,8.156 -8.02,8.156 -4.734,0 -10.918,-5.395 -13.679,-8.813 l -0.528,-44.851 -15.918,0 0.137,26.047 c 0,6.832 0.129,15.914 0.129,19.461 0,5 -3.02,8.156 -8.02,8.156 -4.734,0 -10.918,-5.395 -13.679,-8.813 l -0.532,-44.851 -15.918,0 0.266,66.289"
         id="path3133"
         style="fill:#ffffff;fill-opacity:1;fill-rule:nonzero;stroke:none" /><path
         d="m 624.238,145.523 -5.39,-2.886 c -4.207,-2.375 -8.02,-2.641 -9.993,-2.641 -11.05,0 -18.027,5.793 -18.027,19.863 0,3.032 0,10.129 0.141,15.918 l 0.386,20.254 -8.945,0 0,12.102 8.945,-0.266 0.532,23.684 16.043,0 -0.528,-23.684 14.739,0.266 0,-12.102 -14.739,0 -0.39,-19.461 c -0.137,-6.582 -0.137,-12.629 -0.137,-17.5 0,-4.336 1.453,-6.965 5.398,-6.965 2.766,0 5.129,1.575 7.368,3.157 l 4.597,-9.739"
         id="path3135"
         style="fill:#ffffff;fill-opacity:1;fill-rule:nonzero;stroke:none" /><path
         d="m 632.645,240.496 16.046,0 -0.253,-40.383 0.253,0 c 5.137,5.782 12.625,9.864 21.446,9.864 13.945,0 17.629,-9.735 17.629,-19.989 0,-6.582 -0.137,-10.656 -0.137,-14.863 l -0.395,-33.281 -16.043,0 0.125,16.57 c 0.137,10.266 0.266,22.891 0.266,28.145 0,5.136 -1.973,8.949 -8.684,8.949 -5,0 -10.515,-4.738 -14.597,-8.684 l -0.266,-44.98 -16.043,0 0.653,98.652"
         id="path3137"
         style="fill:#ffffff;fill-opacity:1;fill-rule:nonzero;stroke:none" /><path
         d="m 743.645,184.324 c -0.391,7.11 -3.684,14.348 -12.102,14.348 -7.234,0 -12.754,-7.766 -13.418,-14.348 l 25.52,0 z m -26.301,-11.308 c 0.129,-9.075 4.211,-20.125 15.254,-20.125 6.308,0 11.308,4.207 15.39,8.55 l 9.207,-8.418 c -6.968,-7.761 -16.179,-13.027 -26.968,-13.027 -16.836,0 -28.938,13.945 -28.938,34.727 0,17.629 10.918,35.254 30.254,35.254 18.684,0 27.363,-13.805 27.363,-36.961 l -41.562,0"
         id="path3139"
         style="fill:#ffffff;fill-opacity:1;fill-rule:nonzero;stroke:none" /><path
         d="M 53.5352,12.625 C 47.0898,4.73047 39.3359,0 28.8086,0 9.86328,0 0,17.8906 0,33.9336 c 0,18.2891 11.4453,36.043 31.1719,36.043 9.7344,0 17.2344,-4.6094 23.1562,-11.1797 l -9.0742,-8.8086 c -4.082,3.2812 -7.7656,6.3086 -13.418,6.3086 -10,0 -15,-10.7813 -15,-20.9063 0,-13.9492 6.1836,-21.7109 14.2071,-21.7109 5.9218,0 9.8633,3.5547 13.5468,7.3633 l 8.9454,-8.418"
         id="path3141"
         style="fill:#ffffff;fill-opacity:1;fill-rule:nonzero;stroke:none" /><path
         d="m 90.0898,12.8906 c 11.5822,0 15.6522,12.3633 15.6522,21.5703 0,13.8086 -4.863,22.6289 -15.6522,22.6289 -11.9648,0 -15.6445,-13.4179 -15.6445,-22.6289 0,-8.0195 3.6797,-21.5703 15.6445,-21.5703 z m 0,57.086 c 21.0432,0 31.6952,-15.3868 31.6952,-34.9883 C 121.785,16.1797 110.09,0 90.0898,0 68.5156,0 58.3906,16.1797 58.3906,34.9883 c 0,17.4883 12.2344,34.9883 31.6992,34.9883"
         id="path3143"
         style="fill:#ffffff;fill-opacity:1;fill-rule:nonzero;stroke:none" /><path
         d="m 137.297,100.496 16.043,0 -0.789,-98.65616 -16.047,0 0.793,98.65616"
         id="path3145"
         style="fill:#ffffff;fill-opacity:1;fill-rule:nonzero;stroke:none" /><path
         d="m 173.848,100.496 16.047,0 -0.793,-98.65616 -16.043,0 0.789,98.65616"
         id="path3147"
         style="fill:#ffffff;fill-opacity:1;fill-rule:nonzero;stroke:none" /><path
         d="m 246.965,44.3242 c -0.395,7.1094 -3.684,14.3477 -12.102,14.3477 -7.234,0 -12.754,-7.7656 -13.418,-14.3477 l 25.52,0 z M 220.664,33.0156 c 0.125,-9.0742 4.207,-20.125 15.254,-20.125 6.309,0 11.309,4.2071 15.391,8.5508 l 9.211,-8.418 C 253.547,5.26172 244.336,0 233.547,0 c -16.836,0 -28.938,13.9414 -28.938,34.7227 0,17.6289 10.918,35.2539 30.254,35.2539 18.684,0 27.364,-13.8047 27.364,-36.961 l -41.563,0"
         id="path3149"
         style="fill:#ffffff;fill-opacity:1;fill-rule:nonzero;stroke:none" /><path
         d="M 323.895,12.625 C 317.449,4.73047 309.688,0 299.172,0 c -18.938,0 -28.813,17.8906 -28.813,33.9336 0,18.2891 11.45,36.043 31.172,36.043 9.739,0 17.239,-4.6094 23.157,-11.1797 l -9.075,-8.8086 c -4.082,3.2812 -7.761,6.3086 -13.418,6.3086 -10,0 -15,-10.7813 -15,-20.9063 0,-13.9492 6.184,-21.7109 14.211,-21.7109 5.918,0 9.864,3.5547 13.543,7.3633 l 8.946,-8.418"
         id="path3151"
         style="fill:#ffffff;fill-opacity:1;fill-rule:nonzero;stroke:none" /><path
         d="m 368.605,5.53125 -5.39,-2.90234 C 359.004,0.261719 355.195,0 353.223,0 c -11.055,0 -18.028,5.78906 -18.028,19.8594 0,3.0312 0,10.1289 0.137,15.9179 l 0.391,20.254 -8.946,0 0,12.1015 8.946,-0.2656 0.527,23.6836 16.047,0 -0.527,-23.6836 14.734,0.2656 0,-12.1015 -14.734,0 -0.391,-19.461 c -0.129,-6.582 -0.129,-12.6289 -0.129,-17.5 0,-4.3359 1.445,-6.9648 5.391,-6.9648 2.761,0 5.129,1.5742 7.363,3.1562 l 4.601,-9.73045"
         id="path3153"
         style="fill:#ffffff;fill-opacity:1;fill-rule:nonzero;stroke:none" /><path
         d="m 378.328,92.8594 16.047,0 -0.129,-15.5156 -16.043,0 0.125,15.5156 z m -0.125,-24.7266 16.043,0 -0.66,-66.29296 -16.047,0 0.664,66.29296"
         id="path3155"
         style="fill:#ffffff;fill-opacity:1;fill-rule:nonzero;stroke:none" /><path
         d="m 440.793,12.8906 c 11.578,0 15.652,12.3633 15.652,21.5703 0,13.8086 -4.863,22.6289 -15.652,22.6289 -11.965,0 -15.648,-13.4179 -15.648,-22.6289 0,-8.0195 3.683,-21.5703 15.648,-21.5703 z m 0,57.086 c 21.043,0 31.695,-15.3868 31.695,-34.9883 C 472.488,16.1797 460.793,0 440.793,0 c -21.574,0 -31.699,16.1797 -31.699,34.9883 0,17.4883 12.234,34.9883 31.699,34.9883"
         id="path3157"
         style="fill:#ffffff;fill-opacity:1;fill-rule:nonzero;stroke:none" /><path
         d="m 486.68,68.1328 15.793,0 0,-8.0195 0.254,0 c 5.132,5.7812 12.625,9.8633 21.445,9.8633 13.941,0 17.625,-9.7344 17.625,-19.9883 0,-6.582 -0.137,-10.6563 -0.137,-14.8633 l -0.39,-33.28516 -16.043,0 0.125,16.57426 c 0.136,10.2656 0.261,18.1562 0.261,26.0468 0,8.1524 -1.968,11.0469 -8.679,11.0469 -5,0 -10.516,-4.7383 -14.598,-8.6836 l -0.266,-44.98436 -16.047,0 0.657,66.29296"
         id="path3159"
         style="fill:#ffffff;fill-opacity:1;fill-rule:nonzero;stroke:none" /><path
         d="m 561.641,17.625 c 5.129,-3.0273 10.515,-5.5195 16.574,-5.5195 4.859,0 9.207,2.3672 9.207,7.7539 0,13.2929 -30.906,3.0312 -30.906,29.6015 0,13.6719 11.57,20.5157 24.461,20.5157 7.628,0 16.574,-2.2344 22.492,-7.2344 l -6.836,-10.1289 c -3.82,2.8945 -9.738,5.2656 -14.602,5.2656 -4.609,0 -10.261,-2.5 -10.261,-7.8906 0,-12.6289 31.699,-4.7344 31.699,-28.8086 C 603.469,6.96875 591.367,0 578.477,0 570.449,0 562.559,2.23047 555.723,6.32031 l 5.918,11.30469"
         id="path3161"
         style="fill:#ffffff;fill-opacity:1;fill-rule:nonzero;stroke:none" /><path
         d="m 681.824,12.8906 c 11.582,0 15.656,12.3633 15.656,21.5703 0,13.8086 -4.863,22.6289 -15.656,22.6289 -11.961,0 -15.64,-13.4179 -15.64,-22.6289 0,-8.0195 3.679,-21.5703 15.64,-21.5703 z m 0,57.086 c 21.047,0 31.699,-15.3868 31.699,-34.9883 C 713.523,16.1797 701.824,0 681.824,0 c -21.57,0 -31.695,16.1797 -31.695,34.9883 0,17.4883 12.234,34.9883 31.695,34.9883"
         id="path3163"
         style="fill:#ffffff;fill-opacity:1;fill-rule:nonzero;stroke:none" /><path
         d="m 731.797,56.0313 -10.527,0 0,12.1015 10.527,0 0,8.5547 c 0,14.3359 8.683,24.8515 24.988,24.8515 l 5.129,0 0,-12.8906 -3.684,0 c -5.917,0 -10.125,-3.1523 -10.125,-11.4336 l 0,-9.082 13.68,0 0,-12.1015 -14.07,0 0,-54.19146 -16.184,0 0.266,54.19146"
         id="path3165"
         style="fill:#ffffff;fill-opacity:1;fill-rule:nonzero;stroke:none" /></g></g></svg>